<?xml version="1.0" ?><!DOCTYPE svg  PUBLIC '-//W3C//DTD SVG 1.1//EN'  'http://www.w3.org/Graphics/SVG/1.1/DTD/svg11.dtd'><svg style="enable-background:new 0 0 500 500.008;" version="1.1" viewBox="0 0 500 500.008" xml:space="preserve" xmlns="http://www.w3.org/2000/svg" xmlns:xlink="http://www.w3.org/1999/xlink"><g id="cloud-gear"><g><rect height="500.008" style="fill:#62C1D3;" width="500" y="0"/><g id="_x32_8"><path d="M373.23,184.223c-3.457,0-6.826,0.301-10.152,0.747c-2.9-53.628-47.314-96.218-101.66-96.218     c-44.355,0-78.164,32.3-92.124,71.887c-7.441-1.948-19.175-6.921-27.246-6.921c-50.698,0-91.831,41.11-91.831,91.831     c0,50.701,41.133,91.82,91.831,91.82c3.047,0,6.489,0,10.269,0c1.304,5.42,5.083,9.785,10.049,11.996     c-1.172,5.113-0.088,10.592,3.311,14.898l6.431,8.789c3.193,4.613,8.394,7.412,14.121,7.588c0.85,5.199,3.941,9.902,8.672,12.582     l9.346,5.699c2.842,1.83,6.138,2.797,9.551,2.797c2.212,0,4.365-0.41,6.416-1.172c2.739,4.85,7.632,8.291,13.462,8.906     l10.854,1.539l1.289,0.264h1.641c4.278,0,8.305-1.582,11.469-4.264c2.754,1.656,5.934,2.607,9.215,2.607     c1.67,0,3.34-0.248,4.936-0.717l10.605-2.799c2.49-0.586,5.801-1.992,9.023-5.42c1.158-1.289,2.096-2.68,2.828-4.203     c1.508,0.395,3.061,0.615,4.629,0.615c4.057,0,7.969-1.377,11.059-3.883l8.688-6.621c4.467-3.178,7.045-8.115,7.383-13.314     c5.508-0.732,10.342-3.926,13.096-8.717l5.668-9.316c3.238-4.863,3.678-10.971,1.627-16.244c0.791-0.439,1.478-1.055,2.182-1.611     c10.225,0,18.326,0,23.365,0c42.275,0,76.553-34.293,76.553-76.582C449.783,218.5,415.506,184.223,373.23,184.223z      M332.977,342.686c1.478,1.172,1.904,3.297,0.892,4.645l-6.02,9.887c-0.82,1.539-2.857,2.125-4.629,1.334l-15.455-7.018     c-1.26,1.436-2.533,2.871-3.881,4.219l8.35,14.371c0.98,1.67,0.586,3.764-0.85,4.688l-9.186,7.002     c-1.273,1.113-3.398,0.922-4.775-0.426l-12.025-12.318c-1.188,0.557-2.344,1.055-3.516,1.553c-0.426,0.176-0.85,0.41-1.275,0.557     l1.275,9.594l0.98,7.178c0.133,1.172-0.293,2.256-0.98,3.033c-0.439,0.482-0.967,0.85-1.627,0.98l-11.205,2.945     c-1.582,0.57-3.486-0.439-4.219-2.227l-2.506-6.27l-4.072-10.123c-0.893,0.074-1.758,0.074-2.666,0.074l-4.819,17.607     c-0.513,1.859-2.285,3.061-3.926,2.68l-11.47-1.641c-1.714-0.102-3.047-1.758-3.003-3.691l0.352-18.193     c-1.611-0.498-3.149-1.055-4.702-1.67l-11.25,14.283c-1.245,1.494-3.311,1.889-4.702,0.922l-9.902-6.035     c-1.523-0.746-2.08-2.783-1.348-4.541l7.427-16.523c-1.143-0.98-2.241-1.947-3.237-2.988l-16.318,9.039     c-1.685,0.967-3.779,0.512-4.688-0.908l-6.826-9.332c-1.113-1.26-0.879-3.412,0.498-4.717l13.506-12.787     c-0.088-0.162-0.161-0.338-0.234-0.498c-0.601-1.158-1.201-2.33-1.699-3.545l-18.809,2.562c-1.919,0.293-3.721-0.879-4.014-2.549     l-2.988-11.191c-0.601-1.582,0.41-3.486,2.168-4.219l17.783-7.207c0.088-0.043,0.205-0.072,0.264-0.088     c-0.059-1.332-0.146-2.68-0.146-4.057c-0.059-0.016-0.132-0.016-0.22-0.016l-18.457-5.244c-1.846-0.557-3.032-2.315-2.681-3.969     l1.787-11.441c0.146-1.699,1.816-3.047,3.706-3.018l19.175,0.557c0.044,0,0.117,0.029,0.19,0.045     c0.454-1.539,1.011-3.033,1.567-4.469c-0.015,0-0.044-0.043-0.103-0.072l-15.015-11.998c-1.509-1.201-1.89-3.281-0.894-4.688     l6.05-9.848c0.762-1.523,2.812-2.123,4.556-1.325l17.476,7.937c0.073,0,0.132,0.043,0.146,0.043     c0.996-1.117,2.007-2.23,3.076-3.291l-9.58-16.238c-0.967-1.634-0.586-3.743,0.835-4.666l9.155-7.097     c1.274-1.136,3.413-0.945,4.746,0.41l13.55,13.623c0.102,0.102,0.19,0.212,0.278,0.3c1.157-0.586,2.344-1.113,3.545-1.633     l-3.062-18.377c-0.293-1.89,0.806-3.727,2.476-4.087l11.06-3.303c1.626-0.594,3.545,0.337,4.321,2.102l7.705,17.586     c0.073,0.205,0.146,0.425,0.22,0.63c1.113-0.088,2.271-0.125,3.398-0.154l5.084-18.391c0.482-1.875,2.27-3.091,3.955-2.681     l0.775,0.088l10.693,1.574c1.686,0.096,3.018,1.758,2.988,3.677l-0.365,19.146c0.365,0.073,0.688,0.213,1.039,0.33     c0.059-0.081,0.104-0.117,0.147-0.169l5.055-6.027l7.295-8.643c1.244-1.487,3.383-1.86,4.672-0.806l9.713,6.306     c1.508,0.835,2.051,2.886,1.215,4.614l-7.617,15.732c1.23,0.923,2.418,1.926,3.561,2.951l16.084-8.817     c1.654-0.887,3.734-0.469,4.613,0.988l6.797,9.391c1.084,1.31,0.82,3.404-0.541,4.713l-12.422,11.572     c0.922,1.641,1.801,3.324,2.607,5.039l17.197-2.373c1.904-0.279,3.721,0.863,4.043,2.549l3.002,11.176     c0.543,1.598-0.424,3.502-2.211,4.234l-15.82,6.445c0.264,2.006,0.381,4.057,0.424,6.123l16.465,4.365     c1.846,0.512,3.047,2.269,2.682,3.926l-1.539,11.498c-0.117,1.656-1.742,3.047-3.676,3.033l-17.021-0.205     c-0.557,1.771-1.201,3.5-1.875,5.199l6.781,5.436L332.977,342.686z" style="fill:#FFFFFF;"/><g><path d="M279.143,337.369l-6.768-5.348c-3.018,2.154-6.416,3.691-10.049,4.658      c-1.025,0.279-2.065,0.498-3.135,0.689c-1.406,0.248-2.855,0.439-4.35,0.469l-3.062,21.078      c3.574,0.146,7.105-0.072,10.547-0.615c7.031-1.113,13.682-3.646,19.557-7.324c2.65-1.641,5.156-3.471,7.484-5.551l-7.484-5.889      L279.143,337.369z" style="fill:#FFFFFF;"/><path d="M228.826,325.547l-20.083,7.998c0.806,1.318,1.67,2.578,2.593,3.824      c7.105,9.639,17.461,16.934,29.751,19.98l2.871-19.98l0.161-1.1C237.922,334.293,232.649,330.455,228.826,325.547z" style="fill:#FFFFFF;"/><path d="M284.768,297.232c1.201,4.16,1.568,8.656,0.908,13.227c-0.57,3.883-1.992,7.383-3.793,10.65      c-0.572,1.084-1.084,2.256-1.787,3.266l1.787,1.406l14.678,11.588l0.102,0.088c0.029-0.045,0.045-0.059,0.059-0.088      c5.025-6.842,8.496-14.928,9.785-23.863c1.23-8.393,0.41-16.611-2.08-24.125L284.768,297.232z" style="fill:#FFFFFF;"/><path d="M262.326,316.963c2.812-2.123,4.834-5.316,5.377-9.082c0.746-5.17-1.494-10.049-5.377-12.992      c-1.816-1.363-3.94-2.359-6.357-2.711c-7.544-1.098-14.575,4.147-15.673,11.734c-1.069,7.559,4.16,14.56,11.718,15.658      C255.822,320.127,259.5,319.088,262.326,316.963z" style="fill:#FFFFFF;"/><path d="M253.156,273.926l3.076-21.06c-14.897-0.624-28.872,5.039-39.096,14.864l16.875,13.256      C239.314,276.68,246.023,274.102,253.156,273.926z" style="fill:#FFFFFF;"/><path d="M222.307,301.318c0.688-4.512,2.256-8.656,4.512-12.275l-16.641-13.08      c-4.409,6.488-7.471,14.004-8.672,22.309c-1.289,8.906-0.308,17.607,2.52,25.517l19.629-7.852      C222.161,311.397,221.619,306.432,222.307,301.318z" style="fill:#FFFFFF;"/><path d="M280.096,287.447l1.787-0.719l18.135-7.207c-4.365-7.602-10.576-14.092-18.135-18.779      c-4.527-2.808-9.58-4.976-14.986-6.317l-3.018,21.024C270.559,277.662,276.184,281.91,280.096,287.447z" style="fill:#FFFFFF;"/></g></g></g></g><g id="Layer_1"/></svg>